<svg width="402" height="18" viewBox="0 0 402 18" fill="none" xmlns="http://www.w3.org/2000/svg">
<path d="M-29 9C-13.6667 -0.333333 1.66667 -0.333333 17 9C32.3333 18.3333 47.6667 18.3333 63 9C78.3333 -0.333333 93.6667 -0.333333 109 9C124.333 18.3333 139.667 18.3333 155 9C170.333 -0.333333 185.667 -0.333333 201 9C216.333 18.3333 231.667 18.3333 247 9C262.333 -0.333333 277.667 -0.333333 293 9C308.333 18.3333 323.667 18.3333 339 9C354.333 -0.333333 369.667 -0.333333 385 9C400.333 18.3333 415.667 18.3333 431 9" stroke="#D4DA0D" stroke-width="4"/>
</svg>
