<svg width="402" height="16" viewBox="0 0 402 16" fill="none" xmlns="http://www.w3.org/2000/svg">
<path d="M-29 8C-13.6667 -1.33333 1.66667 -1.33333 17 8C32.3333 17.3333 47.6667 17.3333 63 8C78.3333 -1.33333 93.6667 -1.33333 109 8C124.333 17.3333 139.667 17.3333 155 8C170.333 -1.33333 185.667 -1.33333 201 8C216.333 17.3333 231.667 17.3333 247 8C262.333 -1.33333 277.667 -1.33333 293 8C308.333 17.3333 323.667 17.3333 339 8C354.333 -1.33333 369.667 -1.33333 385 8C400.333 17.3333 415.667 17.3333 431 8" stroke="#D4DA0D" stroke-width="2"/>
</svg>
