<svg width="402" height="26" viewBox="0 0 402 26" fill="none" xmlns="http://www.w3.org/2000/svg">
<path d="M-29 13C-13.6667 3.66667 1.66667 3.66667 17 13C32.3333 22.3333 47.6667 22.3333 63 13C78.3333 3.66667 93.6667 3.66667 109 13C124.333 22.3333 139.667 22.3333 155 13C170.333 3.66667 185.667 3.66667 201 13C216.333 22.3333 231.667 22.3333 247 13C262.333 3.66667 277.667 3.66667 293 13C308.333 22.3333 323.667 22.3333 339 13C354.333 3.66667 369.667 3.66667 385 13C400.333 22.3333 415.667 22.3333 431 13" stroke="#D4DA0D" stroke-width="12"/>
</svg>
