<svg width="143" height="133" viewBox="0 0 143 133" fill="none" xmlns="http://www.w3.org/2000/svg">
<path d="M200.488 49.0156C203.612 65.7261 190.429 86.0406 177.866 104.398C165.191 122.644 153.248 139.045 135.428 157.534C117.613 175.794 94.1509 196.136 76.2091 192.015C58.3786 188.005 46.0687 159.532 41.0473 136.474C36.1429 113.298 38.1871 95.4306 29.6632 75.4286C21.1394 55.4266 1.8248 33.0667 0.705838 9.22553C-0.530249 -14.4985 16.3122 -39.5867 39.3353 -51.4669C62.4697 -63.2356 91.7905 -62.0247 112.85 -50.1011C133.915 -38.406 146.496 -16.2209 162.502 1.42473C178.396 18.959 197.593 32.2995 200.488 49.0156Z" fill="#D4DA0D"/>
</svg>
